<?xml version="1.0" encoding="UTF-8" standalone="no"?>
<!-- Created with Inkscape (http://www.inkscape.org/) -->

<svg
   width="119.96278mm"
   height="119.85676mm"
   viewBox="0 0 119.96278 119.85676"
   version="1.1"
   id="svg196"
   xml:space="preserve"
   inkscape:version="1.2.2 (732a01da63, 2022-12-09)"
   sodipodi:docname="sw4sys.svg"
   xmlns:inkscape="http://www.inkscape.org/namespaces/inkscape"
   xmlns:sodipodi="http://sodipodi.sourceforge.net/DTD/sodipodi-0.dtd"
   xmlns="http://www.w3.org/2000/svg"
   xmlns:svg="http://www.w3.org/2000/svg"><sodipodi:namedview
     id="namedview198"
     pagecolor="#505050"
     bordercolor="#ffffff"
     borderopacity="1"
     inkscape:showpageshadow="0"
     inkscape:pageopacity="0"
     inkscape:pagecheckerboard="1"
     inkscape:deskcolor="#505050"
     inkscape:document-units="mm"
     showgrid="false"
     inkscape:zoom="0.2102413"
     inkscape:cx="64.211931"
     inkscape:cy="223.55265"
     inkscape:window-width="1718"
     inkscape:window-height="1257"
     inkscape:window-x="-8"
     inkscape:window-y="-8"
     inkscape:window-maximized="1"
     inkscape:current-layer="layer1" /><defs
     id="defs193" /><g
     inkscape:label="Layer 1"
     inkscape:groupmode="layer"
     id="layer1"
     transform="translate(-44.596231,-89.865124)"><g
       id="g220"><path
         style="fill:#e5e6e7;stroke-width:0.264583"
         d="m 97.542003,209.47309 c -0.582084,-0.10467 -1.594115,-0.25852 -2.248959,-0.34188 -3.737057,-0.47572 -8.406596,-1.70245 -12.370734,-3.24991 -7.233249,-2.82361 -14.612603,-7.50422 -20.053908,-12.71991 -5.548277,-5.31821 -10.274991,-12.17936 -13.731147,-19.9317 -1.620181,-3.63414 -3.4862,-10.68387 -4.234686,-15.99844 -0.499628,-3.54757 -0.364649,-13.06508 0.234522,-16.53646 1.952,-11.30915 5.758766,-19.96079 12.568898,-28.56535 7.281062,-9.19957 17.706535,-16.251588 29.320215,-19.832838 2.18558,-0.673956 5.462564,-1.403086 8.9535,-1.992155 3.37811,-0.570032 13.896676,-0.590185 16.764496,-0.03212 0.37004,0.07201 1.11353,0.193552 1.6522,0.270097 2.92321,0.415388 9.4332,2.204479 12.64665,3.475581 2.63629,1.042803 7.5744,3.689189 10.51349,5.634292 4.07121,2.694343 6.48938,4.680713 9.7587,8.016153 10.70002,10.91644 16.36883,23.99346 17.194,39.6638 0.20552,3.90306 -0.24578,10.30423 -0.97773,13.86775 -2.42867,11.82411 -7.74294,21.97837 -15.96604,30.50716 -9.41991,9.77009 -21.58975,15.81163 -35.56736,17.6569 -3.17682,0.4194 -12.345722,0.48855 -14.456107,0.10903 z M 113.417,194.14867 c 8.38799,-1.79952 15.92688,-5.69334 21.75844,-11.23819 3.18583,-3.02919 3.89259,-4.33511 3.72087,-6.87519 -0.0597,-0.88337 -0.33022,-2.08237 -0.60111,-2.66446 -0.32892,-0.70676 -4.94526,-5.54084 -13.89664,-14.55208 -14.6047,-14.70237 -14.03781,-14.01073 -14.01265,-17.09632 0.0322,-3.94732 2.98727,-6.89776 6.93813,-6.92719 3.15436,-0.0235 2.9349,-0.20329 17.42353,14.27391 7.23482,7.22911 13.20549,12.99353 13.30003,12.84057 0.0944,-0.15267 0.4055,-1.38684 0.69144,-2.7426 4.29646,-20.37104 -5.88229,-41.08027 -24.60641,-50.06313 -16.50853,-7.91993 -35.706217,-5.27062 -49.548678,6.83778 -3.547105,3.10276 -4.430226,4.57076 -4.420516,7.34817 0.0038,1.09385 0.189746,2.06922 0.54378,2.85277 0.406167,0.89892 3.768797,4.43174 13.725134,14.41979 7.252941,7.27604 13.406187,13.64589 13.673882,14.15521 0.72431,1.3781 0.678878,4.79773 -0.0826,6.21771 -0.752573,1.40335 -2.063896,2.62619 -3.524335,3.28651 -1.607547,0.72683 -4.20933,0.72783 -5.820834,0.002 -0.902514,-0.40636 -4.37361,-3.71513 -14.344407,-13.67356 -7.234582,-7.22561 -13.226301,-13.06496 -13.314935,-12.97632 -0.509819,0.50982 -1.471237,6.78219 -1.613843,10.52885 -0.677331,17.79542 8.787037,33.84324 24.814853,42.07616 3.190222,1.63871 8.704318,3.48414 12.13125,4.06003 1.382448,0.23232 2.811198,0.47477 3.175,0.53878 0.363802,0.064 3.042709,0.0763 5.953119,0.0273 4.15747,-0.07 5.85877,-0.21076 7.9375,-0.65673 z"
         id="path224" /><path
         style="fill:#01b192;stroke-width:0.264583"
         d="m 99.526378,194.7781 c -0.363802,-0.064 -1.792552,-0.30647 -3.175,-0.53879 -3.426932,-0.57589 -8.941028,-2.42132 -12.13125,-4.06002 -16.027816,-8.23293 -25.492184,-24.28075 -24.814853,-42.07617 0.142606,-3.74665 1.104024,-10.01903 1.613843,-10.52885 0.08863,-0.0886 6.080353,5.75071 13.314935,12.97632 9.970797,9.95844 13.441893,13.2672 14.344407,13.67357 1.611504,0.7256 4.213287,0.7246 5.820834,-0.002 1.460439,-0.66031 2.771762,-1.88315 3.524335,-3.28651 0.761481,-1.41997 0.806913,-4.8396 0.0826,-6.21771 -0.267695,-0.50932 -6.420941,-6.87916 -13.673882,-14.1552 -9.956337,-9.98805 -13.318967,-13.52087 -13.725134,-14.4198 -0.354034,-0.78354 -0.539954,-1.75892 -0.54378,-2.85276 -0.0097,-2.77742 0.873411,-4.24542 4.420516,-7.34817 13.842461,-12.10852 33.040151,-14.75783 49.548681,-6.8379 18.72412,8.98286 28.90287,29.69209 24.60641,50.06313 -0.28594,1.35576 -0.59709,2.58993 -0.69144,2.7426 -0.0945,0.15296 -6.06521,-5.61146 -13.30003,-12.84057 -14.48863,-14.4772 -14.26917,-14.29741 -17.42353,-14.27391 -3.95086,0.0294 -6.90595,2.97987 -6.93813,6.92719 -0.0252,3.08559 -0.59205,2.39395 14.01265,17.09632 8.95138,9.01124 13.56772,13.84532 13.89664,14.55208 0.27089,0.58209 0.54139,1.78109 0.60111,2.66446 0.17172,2.54008 -0.53504,3.846 -3.72087,6.87519 -5.83156,5.54485 -13.37045,9.43867 -21.75844,11.23819 -2.07873,0.44596 -3.78003,0.58672 -7.9375,0.65672 -2.91041,0.049 -5.589323,0.0367 -5.953125,-0.0273 z"
         id="path222" /></g></g></svg>
